<svg viewBox="0 0 121.913 46.951" height="46.951" width="121.913" xmlns:xlink="http://www.w3.org/1999/xlink" xmlns="http://www.w3.org/2000/svg">
  <defs>
    <clipPath id="clip-path">
      <rect fill="#252729" height="46.951" width="121.913" data-sanitized-data-name="Rectangle 2487" data-name="Rectangle 2487" id="Rectangle_2487"></rect>
    </clipPath>
  </defs>
  <g clip-path="url(#clip-path)" data-sanitized-data-name="Group 8264" data-name="Group 8264" id="Group_8264">
    <path fill="#252729" transform="translate(0 0.001)" d="M0,5.585V.691A.692.692,0,0,1,.692,0H6.053a.692.692,0,0,1,.692.692V5.585a.692.692,0,0,1-.692.692H.692A.692.692,0,0,1,0,5.585M0,34.171V10.029a.692.692,0,0,1,.692-.692H6.053a.692.692,0,0,1,.692.692V34.171a.692.692,0,0,1-.692.692H.692A.692.692,0,0,1,0,34.171" data-sanitized-data-name="Path 4019" data-name="Path 4019" id="Path_4019"></path>
    <path fill="#252729" transform="translate(-63.22 -60.333)" d="M90.612,92.939a.309.309,0,0,0-.561-.179,5.683,5.683,0,0,1-2.059,1.685,9.567,9.567,0,0,1-4.384.96,11.456,11.456,0,0,1-5.318-1.116,9.776,9.776,0,0,1-3.476-2.931,11.978,11.978,0,0,1-1.919-4.2,20.012,20.012,0,0,1-.6-4.877,15.979,15.979,0,0,1,.882-5.421,13.067,13.067,0,0,1,2.387-4.2,10.689,10.689,0,0,1,3.528-2.7A10.041,10.041,0,0,1,83.452,69a7.881,7.881,0,0,1,6.6,3.039.31.31,0,0,0,.556-.187V69.982a.31.31,0,0,1,.31-.31h6.124a.31.31,0,0,1,.31.31V95.456a12.423,12.423,0,0,1-.986,5.11,10.4,10.4,0,0,1-2.7,3.684,11.839,11.839,0,0,1-4.047,2.257,16.422,16.422,0,0,1-9.909.026,11.7,11.7,0,0,1-3.917-2.127,9.805,9.805,0,0,1-2.568-3.346,10.158,10.158,0,0,1-.93-4.146.311.311,0,0,1,.311-.316h5.659a.312.312,0,0,1,.31.3,4.326,4.326,0,0,0,1.524,3.3,6.171,6.171,0,0,0,4.073,1.271A7.129,7.129,0,0,0,88.744,100a4.855,4.855,0,0,0,1.868-4.021ZM85.06,90.112a5.214,5.214,0,0,0,4.124-1.893,7.637,7.637,0,0,0,1.634-5.162q0-8.2-5.759-8.2T79.3,82.641a8.419,8.419,0,0,0,1.634,5.447,5.084,5.084,0,0,0,4.124,2.023" data-sanitized-data-name="Path 4020" data-name="Path 4020" id="Path_4020"></path>
    <path fill="#252729" transform="translate(-252.526 -60.333)" d="M296.153,84.2a.571.571,0,0,0-.567.632,6.958,6.958,0,0,0,1.634,3.985,5.134,5.134,0,0,0,4.021,1.712,5.644,5.644,0,0,0,2.931-.752,3.429,3.429,0,0,0,1.513-1.73.573.573,0,0,1,.532-.371h5.75a.571.571,0,0,1,.537.764,10.939,10.939,0,0,1-3.9,5.306,11.758,11.758,0,0,1-7.056,2.127q-12.762,0-12.762-13.9a16.185,16.185,0,0,1,.83-5.344,11.526,11.526,0,0,1,2.412-4.1A10.426,10.426,0,0,1,295.9,69.9a14.109,14.109,0,0,1,5.24-.908q5.914,0,8.949,3.787,2.92,3.644,3.03,10.839a.569.569,0,0,1-.57.574Zm9.4-4.254a.568.568,0,0,0,.568-.623,6.647,6.647,0,0,0-.449-1.841,5.167,5.167,0,0,0-1.167-1.764,4.649,4.649,0,0,0-1.66-1.038,5.618,5.618,0,0,0-1.919-.337,4.787,4.787,0,0,0-3.5,1.479,5.986,5.986,0,0,0-1.614,3.477.569.569,0,0,0,.565.647Z" data-sanitized-data-name="Path 4021" data-name="Path 4021" id="Path_4021"></path>
    <path fill="#252729" transform="translate(-436.41 -60.333)" d="M515.763,95.2a.341.341,0,0,1-.341-.341V79.736q0-2.957-.986-3.995a4.525,4.525,0,0,0-3.372-1.038q-5.241,0-5.24,5.862V94.855a.341.341,0,0,1-.341.341H499.42a.341.341,0,0,1-.341-.341V70.013a.341.341,0,0,1,.341-.341h5.75a.341.341,0,0,1,.341.341v2.21a.341.341,0,0,0,.622.194,7.9,7.9,0,0,1,2.543-2.3A10.254,10.254,0,0,1,513.761,69a10.141,10.141,0,0,1,3.372.545,7.148,7.148,0,0,1,2.672,1.634,7.848,7.848,0,0,1,1.764,2.672,9.6,9.6,0,0,1,.648,3.657v17.35a.341.341,0,0,1-.341.341Z" data-sanitized-data-name="Path 4022" data-name="Path 4022" id="Path_4022"></path>
    <path fill="#252729" transform="translate(-617.406 0.001)" d="M706.066,5.475V.8a.8.8,0,0,1,.8-.8h5.142a.8.8,0,0,1,.8.8V5.475a.8.8,0,0,1-.8.8h-5.142a.8.8,0,0,1-.8-.8m0,28.586V10.139a.8.8,0,0,1,.8-.8h5.142a.8.8,0,0,1,.8.8V34.061a.8.8,0,0,1-.8.8h-5.142a.8.8,0,0,1-.8-.8" data-sanitized-data-name="Path 4023" data-name="Path 4023" id="Path_4023"></path>
    <path fill="#252729" transform="translate(-678.065 -65.03)" d="M791.939,99.714,787.9,92.756a.36.36,0,0,0-.624,0l-3.945,6.951a.36.36,0,0,1-.313.182H775.8a.36.36,0,0,1-.3-.557l8.063-12.266a.36.36,0,0,0,0-.4l-7.8-11.747a.36.36,0,0,1,.3-.559h7.268a.359.359,0,0,1,.311.179l3.893,6.707a.36.36,0,0,0,.621,0l3.942-6.71a.36.36,0,0,1,.31-.178h6.95a.36.36,0,0,1,.3.561l-7.941,11.741a.36.36,0,0,0,0,.4l8.207,12.261a.36.36,0,0,1-.3.56H792.25a.36.36,0,0,1-.311-.179" data-sanitized-data-name="Path 4024" data-name="Path 4024" id="Path_4024"></path>
  </g>
</svg>
