<svg xmlns="http://www.w3.org/2000/svg" fill="none" viewBox="0 0 100 44">
  <g clip-path="url(#a)">
    <path fill="#B30031" d="M24.925 43.58a23.04 23.04 0 0 0 1.959-.359 21.767 21.767 0 0 0 9.468-4.83 21.811 21.811 0 0 0 7.373-13.965c.121-1.015.144-2.034.128-3.055a21.41 21.41 0 0 0-.729-5.123 21.517 21.517 0 0 0-3.683-7.524 23.69 23.69 0 0 0-1.716-1.996c-2.6-2.71-5.857-4.7-9.454-5.778-1.16-.348-2.346-.6-3.548-.751a24.209 24.209 0 0 0-2.976-.172 22.164 22.164 0 0 0-6.969 1.202 21.963 21.963 0 0 0-8.913 5.825 21.559 21.559 0 0 0-3.11 4.31 21.904 21.904 0 0 0-1.841 4.444 21.09 21.09 0 0 0-.71 3.535c-.048.413-.079.827-.118 1.241a.224.224 0 0 1-.033.111.046.046 0 0 1-.022.014v.185c0 .066 0 .13.002.196v.234c-.01.131.043.269-.035.394v.352c.078.125.025.262.036.394 0 .078-.002.156-.004.234-.013.117.054.238-.032.346v.118c.083.146.053.312.066.466.395 4.752 2.131 8.953 5.241 12.565 3.082 3.578 6.941 5.916 11.535 7.034.77.184 1.551.326 2.337.426.031.004.066 0 .078.04h5.392c.048-.142.184-.1.278-.113ZM23.071 29.8c1.315-.009 2.63-.002 3.944-.008.148 0 .184.039.18.182-.009.455-.009.911 0 1.368.004.147-.038.181-.182.181a1120.98 1120.98 0 0 0-5.74 0c-.17 0-.199-.05-.199-.206a9474.268 9474.268 0 0 0-.001-18.812c0-.193.053-.238.238-.231.436.014.872.012 1.308 0 .173-.005.23.034.229.22-.01 1.067-.005 2.134-.005 3.2 0 4.625-.002 9.25-.005 13.873 0 .19.045.234.233.233Zm-2.437 10.41c-4.097-.316-7.714-1.804-10.806-4.516-2.866-2.513-4.767-5.622-5.702-9.327a18.068 18.068 0 0 1-.501-5.687c.268-3.926 1.653-7.408 4.155-10.446 2.387-2.897 5.396-4.885 8.997-5.959a17.979 17.979 0 0 1 5.836-.736c.182.007.242.053.235.244-.017.43-.013.86 0 1.29.004.16-.05.19-.2.186-1.719-.055-3.415.117-5.077.574a16.389 16.389 0 0 0-6.27 3.273c-2.076 1.738-3.657 3.843-4.713 6.337a16.124 16.124 0 0 0-1.204 4.674c-.36 3.523.267 6.858 2.042 9.927 2.454 4.242 6.084 6.96 10.869 8.092 1.771.417 3.602.524 5.41.315 4.034-.451 7.477-2.134 10.292-5.059 2.296-2.384 3.733-5.221 4.35-8.471a19.22 19.22 0 0 0 .245-1.954c.014-.163-.03-.204-.195-.204-3.652.005-7.304 0-10.956.01-.195 0-.234-.053-.228-.235.014-.422.012-.846 0-1.268-.004-.153.04-.194.192-.193 2.122.005 4.244.006 6.366.003 2.116 0 4.231.003 6.347-.005.196 0 .228.056.23.238.03 2.174-.253 4.298-.938 6.37-1.959 5.944-7 10.594-13.085 12.055-1.87.452-3.77.62-5.69.472Zm-3.058-25.305a2.64 2.64 0 0 1-2.635 2.628 2.647 2.647 0 0 1-2.628-2.639 2.631 2.631 0 0 1 5.263.011Z"/>
    <path fill="#B30031" d="M24.767 43.654a21.94 21.94 0 0 0 19.067-19.86 21.57 21.57 0 0 0-.37-6.344c-.85-4.044-2.659-7.615-5.54-10.58C32.635 1.424 26.179-.76 18.66.225c-2.071.273-4.054.899-5.95 1.784C9.517 3.5 6.823 5.626 4.657 8.403 1.837 12.017.303 16.123.032 20.699v.01a.046.046 0 0 0 .022-.014.224.224 0 0 0 .033-.11c.04-.414.069-.83.117-1.242a21.09 21.09 0 0 1 .71-3.535 21.907 21.907 0 0 1 1.84-4.444A21.962 21.962 0 0 1 14.779 1.227 22.163 22.163 0 0 1 21.747.026c.442 0 .883.008 1.326.031.552.03 1.103.071 1.65.141 1.202.153 2.388.404 3.548.752a21.765 21.765 0 0 1 9.454 5.777c.608.634 1.181 1.3 1.716 1.997a21.518 21.518 0 0 1 3.683 7.524c.443 1.68.7 3.384.729 5.123.016 1.02-.007 2.04-.129 3.056a22.334 22.334 0 0 1-.64 3.29 21.724 21.724 0 0 1-1.327 3.562 21.947 21.947 0 0 1-5.406 7.114 21.885 21.885 0 0 1-2.344 1.783 21.877 21.877 0 0 1-9.083 3.405c-.094.013-.23-.03-.279.115.027-.057.08-.035.122-.04Z"/>
    <path fill="#BC1B47" d="M.02 21.328v-.003H0v.39c.044-.126.009-.257.02-.387Z"/>
    <path fill="#BC1B47" d="M.036 21.323H.02v.004c-.011.129.024.26-.02.39.078-.125.025-.263.036-.394Z"/>
    <path fill="#BB1945" d="M.02 22.46c-.011-.13.024-.263-.02-.39v.39h.02Z"/>
    <path fill="#BB1945" d="M.02 22.46h.016c-.011-.132.042-.269-.036-.394.044.13.009.264.02.394Z"/>
    <path fill="#DC8AA0" d="M.02 22.696a.161.161 0 0 1-.02-.003v.352c.042-.115.01-.233.02-.349Z"/>
    <path fill="#DC8AA0" d="M.032 22.698H.02c-.01.117.022.234-.02.348.086-.11.02-.233.032-.348Z"/>
    <path fill="#CA4D6F" d="M.02 21.314v-.223H0v.235c.006-.008.013-.013.02-.012Z"/>
    <path fill="#CA4D6F" d="M.02 21.097v.217c.006.001.012.004.016.01v-.235H.02l-.001.008ZM.02 21.314c-.007 0-.014.003-.02.013h.02v-.013Z"/>
    <path fill="#CA4D6F" d="M.02 21.325h.016a.024.024 0 0 0-.016-.01v.01Z"/>
    <path fill="#C9476A" d="M.02 22.681v-.21A.021.021 0 0 1 0 22.46v.234c.007-.01.014-.014.02-.012ZM.02 22.472v.21c.005 0 .009.006.012.016l.004-.235a.03.03 0 0 1-.016.009Z"/>
    <path fill="#C9476A" d="M.02 22.472v-.011H0a.021.021 0 0 0 .02.01ZM.02 22.472a.03.03 0 0 0 .016-.01H.02v.01ZM.02 22.69v-.009c-.006-.002-.013 0-.02.012a.161.161 0 0 0 .02.003v-.005ZM.02 22.681v.015h.013c-.003-.01-.008-.013-.013-.015Z"/>
    <path fill="#D97E96" d="M.02 21.08v-.171c-.006.002-.013 0-.02-.012v.196c.006-.01.013-.015.02-.013ZM.02 20.909v.171a.027.027 0 0 1 .015.01c0-.065 0-.13-.002-.195a.024.024 0 0 1-.013.014Z"/>
    <path fill="#D97E96" d="M.02 21.08c-.007 0-.014 0-.02.013h.02v-.013ZM.02 21.08v.011h.015a.027.027 0 0 0-.015-.011ZM.02 20.909v-.014H0c.007.013.014.016.02.014ZM.02 20.898v.01a.024.024 0 0 0 .013-.014H.02v.004Z"/>
    <path fill="#6A6A6A" d="M99.995 26.672c0-2.257.002-4.514.004-6.772 0-.156-.033-.208-.2-.207-3.659.005-7.317.005-10.976 0-.162 0-.205.043-.205.204.006 1.64.006 3.279 0 4.919 0 .168.036.218.213.217 1.647-.007 3.294 0 4.94-.009.186 0 .222.056.221.228-.007 1.418-.004 2.836-.004 4.254 0 .536 0 .537-.507.681a15.86 15.86 0 0 1-3.537.562c-1.327.066-2.64-.014-3.925-.374-1.815-.508-3.117-1.613-3.853-3.361-.508-1.208-.71-2.481-.799-3.776a23.502 23.502 0 0 1-.004-3.1c.078-1.205.255-2.39.67-3.53.639-1.756 1.78-3.033 3.556-3.696.91-.34 1.857-.486 2.824-.538a12.308 12.308 0 0 1 3.068.196c1.754.346 3.163 1.25 4.266 2.644.095.121.147.148.276.029a686.319 686.319 0 0 1 3.851-3.541c.086-.079.092-.127.022-.223a9.52 9.52 0 0 0-1.789-1.87c-1.779-1.407-3.845-2.113-6.057-2.45-1.544-.234-3.096-.27-4.65-.165-1.525.104-3.02.362-4.465.87-2.783.98-4.91 2.732-6.28 5.362-1.077 2.066-1.533 4.295-1.691 6.597a27.7 27.7 0 0 0-.008 3.451c.087 1.543.313 3.064.754 4.547.508 1.702 1.285 3.262 2.48 4.594 1.699 1.894 3.869 2.939 6.317 3.473 1.927.422 3.878.5 5.842.4a25.058 25.058 0 0 0 5.308-.827c1.468-.398 2.883-.924 4.175-1.743.124-.079.172-.16.172-.31-.009-2.246-.011-4.491-.009-6.736Z"/>
    <path fill="#6B6B6B" d="M73.863 30.34c-4.394.007-8.788.01-13.182.01-.198 0-.256-.043-.256-.25.006-7.508.009-15.016.009-22.523 0-.172-.034-.228-.22-.227-2.05.007-4.101.007-6.152 0-.186 0-.234.042-.234.234a28704.118 28704.118 0 0 1 .001 28.104c0 .17.04.219.213.219 6.621-.005 13.241-.005 19.861 0 .167 0 .203-.048.202-.207a764.56 764.56 0 0 1 0-5.114c0-.194-.042-.246-.242-.245Z"/>
  </g>
  <defs>
    <clipPath id="a">
      <path fill="#fff" d="M0-.004h100v43.699H0z"/>
    </clipPath>
  </defs>
</svg>