<svg xmlns="http://www.w3.org/2000/svg" width="15" height="16" viewBox="0 0 15 16" fill="none">
    <path d="M13.0998 6.04004H1.89984C1.59056 6.04004 1.33984 6.29076 1.33984 6.60004V14.44C1.33984 14.7493 1.59056 15 1.89984 15H13.0998C13.4091 15 13.6598 14.7493 13.6598 14.44V6.60004C13.6598 6.29076 13.4091 6.04004 13.0998 6.04004Z" stroke="currentColor" stroke-linecap="round" stroke-linejoin="round"></path>
    <path d="M4.7002 6.04V3.8C4.7002 3.05739 4.99519 2.3452 5.5203 1.8201C6.0454 1.295 6.75759 1 7.5002 1C8.2428 1 8.95499 1.295 9.48009 1.8201C10.0052 2.3452 10.3002 3.05739 10.3002 3.8V6.04" stroke="currentColor" stroke-linecap="round" stroke-linejoin="round"></path>
</svg>