<svg width="33" height="32" viewBox="0 0 33 32" fill="none" xmlns="http://www.w3.org/2000/svg">
<g id="GlobeHemisphereWest" clip-path="url(#clip0_286_52173)">
<path id="Vector" d="M16.5 28C23.1274 28 28.5 22.6274 28.5 16C28.5 9.37258 23.1274 4 16.5 4C9.87258 4 4.5 9.37258 4.5 16C4.5 22.6274 9.87258 28 16.5 28Z" stroke="#495946" stroke-linecap="round" stroke-linejoin="round"/>
<path id="Vector_2" d="M9.98486 15.4075L11.6499 12.5C11.7378 12.3478 11.8642 12.2214 12.0165 12.1336C12.1688 12.0458 12.3416 11.9997 12.5174 12H14.6061C14.775 12.0003 14.9411 11.9572 15.0886 11.875L16.6249 11.03C16.6925 10.9936 16.7551 10.9487 16.8111 10.8962L20.1761 7.85499C20.3435 7.70272 20.4544 7.49815 20.4905 7.27473C20.5266 7.05131 20.4858 6.82225 20.3749 6.62499L19.0624 4.27374" stroke="#495946" stroke-linecap="round" stroke-linejoin="round"/>
<path id="Vector_3" d="M8.97258 6.65375L7.50008 10.135C7.40061 10.3707 7.39525 10.6355 7.48508 10.875L8.92258 14.7087C8.98164 14.8654 9.07908 15.0047 9.20597 15.1139C9.33286 15.2231 9.48513 15.2987 9.64883 15.3337L12.3276 15.91C12.4762 15.9419 12.6155 16.0072 12.7351 16.101C12.8546 16.1947 12.9512 16.3145 13.0176 16.4512L13.4926 17.435C13.5745 17.604 13.7024 17.7465 13.8616 17.8462C14.0207 17.9459 14.2048 17.9988 14.3926 17.9987H16.1176" stroke="#495946" stroke-linecap="round" stroke-linejoin="round"/>
<path id="Vector_4" d="M27.1364 21.56L20.5889 17.5325C20.4698 17.4599 20.3371 17.4127 20.1989 17.3937L17.3464 17.0087C17.1322 16.9797 16.9143 17.0209 16.7255 17.1262C16.5366 17.2314 16.387 17.395 16.2989 17.5925L14.5864 21.435C14.5068 21.6138 14.4815 21.812 14.5135 22.0051C14.5454 22.1982 14.6334 22.3777 14.7664 22.5212L17.2339 25.0625C17.3409 25.1775 17.4193 25.3161 17.4627 25.467C17.5061 25.6179 17.5134 25.777 17.4839 25.9312L17.0877 27.9862" stroke="#495946" stroke-linecap="round" stroke-linejoin="round"/>
</g>
<defs>
<clipPath id="clip0_286_52173">
<rect width="32" height="32" fill="white" transform="translate(0.5)"/>
</clipPath>
</defs>
</svg>
