<svg width="33" height="32" viewBox="0 0 33 32" fill="none" xmlns="http://www.w3.org/2000/svg">
<g id="SealCheck" clip-path="url(#clip0_286_52183)">
<path id="Vector" d="M7.3075 25.1925C6.1575 24.0425 6.92 21.6263 6.335 20.2113C5.7275 18.75 3.5 17.5625 3.5 16C3.5 14.4375 5.7275 13.25 6.335 11.7887C6.92 10.375 6.1575 7.9575 7.3075 6.8075C8.4575 5.6575 10.875 6.42 12.2887 5.835C13.7562 5.2275 14.9375 3 16.5 3C18.0625 3 19.25 5.2275 20.7113 5.835C22.1263 6.42 24.5425 5.6575 25.6925 6.8075C26.8425 7.9575 26.08 10.3737 26.665 11.7887C27.2725 13.2562 29.5 14.4375 29.5 16C29.5 17.5625 27.2725 18.75 26.665 20.2113C26.08 21.6263 26.8425 24.0425 25.6925 25.1925C24.5425 26.3425 22.1263 25.58 20.7113 26.165C19.25 26.7725 18.0625 29 16.5 29C14.9375 29 13.75 26.7725 12.2887 26.165C10.875 25.58 8.4575 26.3425 7.3075 25.1925Z" stroke="#495946" stroke-linecap="round" stroke-linejoin="round"/>
<path id="Vector_2" d="M11.5 17L14.5 20L21.5 13" stroke="#495946" stroke-linecap="round" stroke-linejoin="round"/>
</g>
<defs>
<clipPath id="clip0_286_52183">
<rect width="32" height="32" fill="white" transform="translate(0.5)"/>
</clipPath>
</defs>
</svg>
