<svg xmlns="http://www.w3.org/2000/svg" fill="none" viewBox="0 0 190 47">
    <g clip-path="url(#a)">
      <path fill="#1BDA2E" d="M24.944 18.44h-3.432a.859.859 0 0 1-.86-.861v-6.884a.859.859 0 0 1 .862-.862h3.43a.862.862 0 0 1 .862.862v6.884a.863.863 0 0 1-.862.862ZM18.607 33.406h-6.89a.528.528 0 0 1-.492-.49v-4.43a.492.492 0 0 1 .492-.491h6.89a.528.528 0 0 1 .492.492v4.429a.49.49 0 0 1-.492.49ZM35.594 33.374h-6.89a.528.528 0 0 1-.492-.492v-4.43a.49.49 0 0 1 .492-.49h6.89a.526.526 0 0 1 .492.49v4.43a.493.493 0 0 1-.492.492Z"></path>
      <path fill="#1BDA2E" d="M44.052 34.204c-5.432 10.41-17.843 15.154-28.87 11.034A23.356 23.356 0 1 1 43.013 10.79l.943-2.529a2.003 2.003 0 1 1 3.75 1.401l-2.847 7.626a1.997 1.997 0 0 1-2.575 1.174l-7.509-2.796a2.002 2.002 0 0 1 1.401-3.75l3.64 1.36a19.315 19.315 0 1 0 .68 19.081 1.998 1.998 0 0 1 2.708-.864 2 2 0 0 1 .839 2.716l.01-.004ZM170.268 28.017c1.174-.262 1.589-.873.967-3.652-.174-.773-.317-1.131-.998-.979l-8.554 1.914 2.34-3.895c2.155-2.98 4.621-6.741 3.742-10.663-1.188-5.314-6.616-4.358-9.211-3.771-2.317.518-5.36 1.555-7.165 2.61-.134.126-.12.48-.017.942.249 1.11 1.037 2.751 1.531 2.64.32-.104.626-.249.909-.43a18.257 18.257 0 0 1 4.394-1.533c2.407-.54 3.874-.219 4.351 1.912.449 2.008-1.131 4.925-3.476 7.946l-3.602 5.507c-.432.389-.488.855-.358 1.441.277 1.237 1.158 3.147 1.776 3.017l13.371-3.006Z"></path>
      <path fill="#495946" d="M128.208 12.946c-1.778 0-2.426.255-2.426 1.158.021.46.107.916.254 1.354 1.637 5.784 2.427 8.635 3.837 12.473.677 1.834 1.356 2.174 3.161 2.174 1.834 0 2.398-.34 2.935-2.203.479-1.552 1.185-4.288 2.144-8.38.904 4.093 1.665 6.829 2.146 8.38.536 1.863 1.099 2.203 2.906 2.203 1.806 0 2.511-.34 3.216-2.174 1.441-3.894 2.146-6.6 3.811-12.473.153-.426.247-.87.281-1.32 0-.903-.705-1.186-2.511-1.186-1.132 0-2.201.34-2.399 1.44-1.043 5.163-1.778 8.41-2.398 10.695-.507-2.174-1.32-5.25-2.314-10.182-.283-1.495-.648-1.948-2.738-1.948-2.002 0-2.398.453-2.707 1.948-.96 4.938-1.778 8.014-2.372 10.182-.508-2.285-1.298-5.532-2.314-10.695-.226-1.106-1.269-1.446-2.512-1.446Zm-11.343 3.556c1.32 0 2.314.566 2.314 1.976 0 1.41-1.017 2.263-2.908 2.263a6.039 6.039 0 0 1-2.54-.535c.226-2.237 1.045-3.704 3.134-3.704Zm.649 13.66c2.877 0 4.938-.51 5.898-1.017.45-.255.62-.507.62-.96 0-.566-.226-2.828-.875-2.828-.141 0-.451.14-.903.28a12.418 12.418 0 0 1-3.894.621c-3.245 0-4.261-1.297-4.572-2.849.358.264.76.464 1.186.592a7.043 7.043 0 0 0 2.087.255c4.037 0 6.773-1.32 6.773-5.644 0-3.67-2.031-5.954-6.773-5.954-6.547 0-8.07 4.336-8.07 8.775 0 3.79 1.158 8.728 8.523 8.728ZM96.292 26.52v-3.245c0-3.188 1.497-6.292 3.754-6.292 1.32 0 1.665 1.043 1.665 2.595v9.474c0 .904 1.946 1.017 2.709 1.017 1.805 0 1.918-.847 1.946-3.075V18.73c0-3.894-1.608-6.066-5.023-6.066-2.37 0-4.4 1.32-5.304 3.217-.085-2.174-.453-2.936-1.976-2.936-.903 0-2.427.057-2.427.931v15.175c0 .904 1.92 1.017 2.71 1.017 1.946.007 1.946-.952 1.946-3.549ZM81.675 16.502c1.32 0 2.313.566 2.313 1.976 0 1.41-1.016 2.263-2.907 2.263a6.016 6.016 0 0 1-2.538-.535c.224-2.237 1.043-3.704 3.132-3.704Zm.648 13.66c2.88 0 4.939-.51 5.899-1.017.45-.255.62-.507.62-.96 0-.566-.226-2.828-.875-2.828-.141 0-.45.14-.903.28a12.416 12.416 0 0 1-3.894.621c-3.245 0-4.261-1.297-4.572-2.849.358.264.76.464 1.186.592a7.05 7.05 0 0 0 2.089.255c4.035 0 6.77-1.32 6.77-5.644 0-3.67-2.03-5.954-6.77-5.954-6.549 0-8.072 4.336-8.072 8.775.005 3.79 1.157 8.728 8.522 8.728ZM62.767 19.352a8.56 8.56 0 0 1-2.173-.31v-5.757a9.131 9.131 0 0 1 2.172-.26c2.682 0 3.783.987 3.783 3.076 0 2.037-.96 3.251-3.783 3.251Zm-2.173 3.554a8.184 8.184 0 0 0 2.088.198h.622l3.337 5.983c.649.903 1.382 1.073 2.512 1.073 1.1 0 2.342-.226 2.342-1.214a2.213 2.213 0 0 0-.255-.903l-3.358-5.814c2.398-1.07 3.528-3.075 3.528-6.01 0-4.995-3.583-6.941-8.889-6.941a30.125 30.125 0 0 0-4.995.422c-1.242.226-1.664.79-1.664 1.637v17.779c0 .931 1.945 1.044 2.707 1.044 1.807 0 2.033-.988 2.033-3.415l-.008-3.838Z"></path>
      <path fill="#1BDA2E" d="M188.842 16.193c-.607-.174-2.119-.464-2.31.21l-2.598 9.13c-.616 2.17-1.976 2.907-3.971 2.34-1.931-.55-2.549-1.922-1.955-4.004l2.085-7.33c.53-1.866.566-2.673-.814-3.069-.587-.166-2.12-.462-2.31.21l-2.64 9.282c-1.259 4.425.319 6.54 4.808 7.816 4.1 1.167 7.122.434 8.406-4.079l2.116-7.438c.53-1.865.571-2.674-.817-3.068Z"></path>
      <path fill="#495946" d="M57.555 41.261c0 .792-.074 1.113-.662 1.113-.249 0-.883-.036-.883-.34v-5.796c0-.277.138-.46.544-.533a9.732 9.732 0 0 1 1.627-.14c1.73 0 2.898.636 2.898 2.263 0 .956-.368 1.61-1.15 1.959l1.095 1.899a.74.74 0 0 1 .083.294c0 .322-.405.396-.754.396s-.607-.055-.818-.349l-1.086-1.952h-.202a2.642 2.642 0 0 1-.683-.064l-.01 1.25Zm1.942-3.469c0-.68-.358-1.003-1.233-1.003-.239 0-.477.027-.71.083v1.886c.232.063.47.096.71.1.92 0 1.233-.402 1.233-1.066ZM61.448 39.532c0-1.446.496-2.862 2.64-2.862 1.546 0 2.208.745 2.208 1.942 0 1.407-.892 1.839-2.208 1.839-.23.006-.459-.02-.68-.081a1.298 1.298 0 0 1-.387-.189c.102.505.434.93 1.491.93.431 0 .86-.068 1.27-.202a2.03 2.03 0 0 1 .293-.093c.213 0 .287.736.287.92a.323.323 0 0 1-.204.314c-.313.166-.984.33-1.923.33-2.41-.006-2.787-1.616-2.787-2.848Zm1.546-.405c.26.117.543.176.828.173.617 0 .943-.275.943-.735 0-.46-.32-.643-.754-.643-.677-.007-.943.477-1.017 1.205ZM66.913 37.996c-.368 0-.468-.066-.468-.332 0-.441.064-.901.46-.901h.247v-.093c0-.875.074-1.978 1.942-1.978.92 0 1.215.093 1.32.22a.19.19 0 0 1 .045.157c0 .396-.037.847-.275.847a4.583 4.583 0 0 0-.715-.075c-.565 0-.799.256-.799.827v.093h1.03c.21 0 .44.035.44.33 0 .709-.127.903-.46.903h-1.01v3.192c0 .847 0 1.16-.635 1.16-.24 0-.875-.038-.875-.332v-4.018h-.247ZM75.149 41.897c.21.394-.47.477-.828.477-.443 0-.792-.174-.792-.726v-.15a1.863 1.863 0 0 1-1.591.891c-1.086 0-1.61-.709-1.61-1.978v-3.345c0-.287.495-.303.791-.303.624 0 .726.358.726 1.49v1.858c0 .506.102.847.515.847.718 0 1.17-.994 1.17-2.035v-1.857c0-.287.497-.303.8-.303.69 0 .717.358.717 1.49v2.696c0 .322 0 .773.102.948ZM76.484 36.753c.533 0 .624.294.643 1.131.258-.58.754-1.223 1.767-1.223.414 0 .422.22.422.405 0 .754-.238.984-.598.984-.892 0-1.508 1.132-1.508 2.18v.943c0 .846 0 1.16-.636 1.16-.256 0-.882-.038-.882-.332v-4.954c0-.275.496-.294.792-.294ZM81.12 37.645c.145-.196.315-.372.506-.524.41-.305.91-.463 1.42-.45 1.185 0 1.697.882 1.697 2.032 0 1.942-.994 3.67-2.936 3.67-1.646 0-2.144-.993-2.144-2.262V35.21c0-.287.735-.304.875-.304.588 0 .633.276.643 1.058v1.205c-.002.16-.022.32-.06.477Zm.055 2.52c0 .567.213.921.754.921.707 0 1.297-.92 1.297-2.189 0-.524-.165-.943-.682-.943-.818.004-1.369 1.182-1.369 2.212ZM86.025 34.785a.7.7 0 0 1 .763.735c0 .552-.431.8-.874.8-.404 0-.736-.212-.736-.708a.803.803 0 0 1 .847-.827Zm.763 5.988c0 .294.12.396.314.396a.618.618 0 0 0 .23-.028 1.36 1.36 0 0 1 .175-.036c.24 0 .256.652.256.93 0 .166-.349.339-1.176.339-.984 0-1.32-.496-1.32-1.554v-3.754c0-.287.496-.303.792-.303.697 0 .726.395.726 1.627l.004 2.383ZM90.8 37.977c-.836 0-1.059.102-1.059.377 0 .396.524.405 1.115.588.69.22 1.399.617 1.399 1.658 0 1.361-.93 1.774-2.374 1.774-1.06 0-1.565-.128-1.74-.313a.379.379 0 0 1-.1-.294c0-.202.045-.873.21-.873.027 0 .093.017.313.064.379.077.765.114 1.15.11.378 0 .93-.065.93-.451 0-.387-.58-.487-1.206-.681-.662-.202-1.288-.432-1.288-1.573 0-1.252.744-1.697 2.31-1.697.827 0 1.638.12 1.638.46 0 .074-.028.975-.258.975-.038 0-.074-.019-.332-.064a6.696 6.696 0 0 0-.707-.06ZM95.879 36.67c1.114 0 1.638.71 1.638 1.978v2.696c0 .726-.047 1.003-.635 1.003-.25 0-.883-.037-.883-.331v-3.093c0-.505-.111-.844-.543-.844-.718 0-1.205.965-1.224 1.978v1.13c0 .848 0 1.16-.635 1.16-.258 0-.882-.037-.882-.331v-6.788c0-.287.735-.304.873-.304.607 0 .645.285.645 1.131v1.528a1.92 1.92 0 0 1 1.646-.913ZM97.959 39.532c0-1.446.497-2.862 2.639-2.862 1.546 0 2.208.745 2.208 1.942 0 1.407-.892 1.839-2.208 1.839a2.31 2.31 0 0 1-.68-.081 1.275 1.275 0 0 1-.387-.189c.1.505.432.93 1.49.93.431 0 .86-.068 1.271-.202.095-.039.193-.07.294-.093.211 0 .284.736.284.92a.324.324 0 0 1-.057.189.323.323 0 0 1-.158.119c-.313.166-.984.33-1.923.33-2.396 0-2.773-1.61-2.773-2.842Zm1.546-.405c.26.117.542.176.827.173.617 0 .943-.275.943-.735 0-.46-.322-.643-.754-.643-.677-.007-.943.477-1.016 1.205ZM105.927 36.67c.274.002.547.042.811.119v-1.563c0-.287.735-.304.882-.304.607 0 .635.285.635 1.132v4.902c0 .322 0 .773.1.943.213.394-.467.477-.827.477-.442 0-.79-.174-.79-.726v-.211a2.812 2.812 0 0 1-.444.477 2.12 2.12 0 0 1-1.333.47c-1.28 0-1.795-1.013-1.795-2.337 0-2.008 1.032-3.379 2.761-3.379Zm.811 1.876v-.422a1.784 1.784 0 0 0-.591-.093c-.91 0-1.389.885-1.389 1.86 0 .633.175 1.131.645 1.131.801 0 1.335-1.335 1.335-2.476ZM110.473 42.016c.007-.15.035-.299.083-.441a34.53 34.53 0 0 1 1.978-5.291c.377-.71.415-.719.975-.719s.597.01.976.719a33.947 33.947 0 0 1 1.978 5.29c.048.14.076.285.083.432 0 .285-.203.377-.754.377-.394 0-.698-.1-.799-.46l-.221-.837h-2.532l-.221.837c-.092.36-.405.46-.782.46-.562-.009-.764-.083-.764-.367Zm3.036-4.637a35.975 35.975 0 0 0-.864 2.346h1.72a38.953 38.953 0 0 0-.856-2.346ZM119.003 42.374a1.322 1.322 0 0 1-.664-.189v.632c0 .84 0 1.15-.635 1.15-.256 0-.882-.036-.882-.33v-6.6c0-.274.497-.293.791-.293.487 0 .608.249.643.943.15-.214.33-.404.534-.566a2.289 2.289 0 0 1 1.418-.45c1.186 0 1.697.882 1.697 2.032-.004 1.942-.99 3.671-2.902 3.671Zm-.664-2.244c0 .579.189.956.636.956.735 0 1.333-.901 1.333-2.125 0-.543-.147-.943-.607-.943-.809.004-1.362 1.118-1.362 2.112ZM124.541 42.374a1.322 1.322 0 0 1-.662-.189v.632c0 .84 0 1.15-.635 1.15-.257 0-.883-.036-.883-.33v-6.6c0-.274.496-.293.79-.293.489 0 .608.249.645.943.149-.214.329-.405.534-.566a2.283 2.283 0 0 1 1.416-.45c1.188 0 1.697.882 1.697 2.032-.004 1.942-.988 3.671-2.902 3.671Zm-.662-2.244c0 .579.189.956.636.956.735 0 1.333-.901 1.333-2.125 0-.543-.147-.943-.607-.943-.809.004-1.362 1.118-1.362 2.112ZM129.73 41.17a.61.61 0 0 0 .23-.03c.058-.015.116-.027.175-.035.24 0 .259.652.259.93 0 .166-.351.339-1.179.339-.984 0-1.32-.496-1.32-1.554v-5.594c0-.287.738-.304.875-.304.607 0 .645.285.645 1.132v4.729c.004.284.123.386.315.386ZM131.563 34.785a.701.701 0 0 1 .764.735c0 .552-.434.8-.875.8-.406 0-.736-.212-.736-.708a.807.807 0 0 1 .241-.6.808.808 0 0 1 .606-.227Zm.764 5.988c0 .294.118.396.313.396a.626.626 0 0 0 .23-.028c.057-.016.115-.028.173-.036.24 0 .258.652.258.93 0 .166-.35.339-1.178.339-.984 0-1.32-.496-1.32-1.554v-3.754c0-.287.498-.303.792-.303.7 0 .728.395.728 1.627l.004 2.383ZM138.353 41.897c.22.394-.46.477-.819.477-.386 0-.699-.128-.773-.524-.341.341-.967.524-1.536.524-1.345 0-1.731-.818-1.731-1.674 0-1.288.884-1.886 2.226-1.886.47 0 .911.064 1.032.064v-.175c0-.515-.313-.69-1.058-.69a5.31 5.31 0 0 0-1.399.188.537.537 0 0 1-.156.027c-.304 0-.349-.726-.349-.985 0-.173 0-.275.275-.367a5.968 5.968 0 0 1 1.793-.212c1.096 0 2.402.202 2.402 2.097v2.21c0 .326 0 .76.093.926Zm-2.725-.673c.617 0 1.077-.617 1.114-1.084v-.176a3.2 3.2 0 0 0-.597-.054c-.709 0-1.115.31-1.115.754a.551.551 0 0 0 .171.416.54.54 0 0 0 .427.144ZM139.752 42.347c-.259 0-.885-.037-.885-.331v-4.95c0-.287.498-.303.792-.303.496 0 .617.247.645.956a1.905 1.905 0 0 1 1.729-1.049c1.113 0 1.639.71 1.639 1.978v2.696c0 .726-.047 1.003-.636 1.003-.248 0-.884-.037-.884-.331v-3.093c0-.505-.109-.844-.543-.844-.735 0-1.224 1.01-1.224 2.051v1.058c0 .846 0 1.16-.633 1.16ZM144.26 39.485c0-2.172 1.26-2.815 2.742-2.815.388-.008.775.039 1.15.138.119.047.189.111.189.332 0 .22-.055.92-.33.92-.019 0-.038-.01-.074-.01a4.462 4.462 0 0 0-.773-.101c-.818 0-1.344.514-1.344 1.583 0 1.07.507 1.554 1.261 1.554.283-.02.563-.066.837-.137a.69.69 0 0 1 .211-.065c.287 0 .332.736.332.92 0 .185-.102.266-.284.35-.313.146-.856.22-1.509.22-1.037 0-2.408-.588-2.408-2.889ZM148.704 39.532c0-1.446.496-2.862 2.631-2.862 1.546 0 2.21.745 2.21 1.942 0 1.407-.894 1.839-2.21 1.839a2.33 2.33 0 0 1-.681-.081 1.305 1.305 0 0 1-.377-.189c.102.505.434.93 1.491.93.431 0 .86-.068 1.269-.202a2.03 2.03 0 0 1 .295-.093c.213 0 .286.736.286.92a.317.317 0 0 1-.052.19.317.317 0 0 1-.152.124c-.311.166-.984.33-1.921.33-2.412-.006-2.789-1.616-2.789-2.848Zm1.547-.405c.26.117.542.176.827.173.617 0 .943-.275.943-.735 0-.46-.32-.643-.754-.643-.677-.007-.943.477-1.016 1.205ZM157.714 38.292h1.821c.36 0 .443.266.443.579 0 .44-.203.635-.801.635h-1.463v1.527c.445.067.894.095 1.344.083.336.005.671-.017 1.003-.066.147 0 .275-.017.358-.017.323 0 .387.681.387.883 0 .24-.175.313-.451.36-.275.047-1.271.09-1.885.09a12.122 12.122 0 0 1-1.841-.128.494.494 0 0 1-.46-.552v-5.44a.494.494 0 0 1 .46-.55 12.107 12.107 0 0 1 1.86-.13c.607 0 1.61.056 1.868.092.259.035.451.12.451.358 0 .203-.064.884-.387.884-.083 0-.22-.019-.358-.028a9.973 9.973 0 0 0-.986-.055 7.914 7.914 0 0 0-1.361.083l-.002 1.392ZM160.849 42.006c.01-.142.044-.282.102-.413.285-.786.741-1.5 1.335-2.089a6.31 6.31 0 0 1-1.307-1.987 1.18 1.18 0 0 1-.111-.425c0-.246.211-.33.737-.33.395 0 .625.046.764.423.197.517.49.991.864 1.399.396-.397.704-.874.901-1.4.14-.376.377-.421.754-.421.543 0 .764.083.764.358a1.18 1.18 0 0 1-.093.405 5.395 5.395 0 0 1-1.361 2.061 6.543 6.543 0 0 1 1.333 2.023c.063.13.1.271.111.415 0 .249-.22.332-.754.332-.341 0-.616-.102-.737-.415a4.603 4.603 0 0 0-.892-1.435 4.224 4.224 0 0 0-.892 1.435c-.12.313-.396.415-.754.415-.541 0-.764-.083-.764-.35ZM168.127 42.374a1.318 1.318 0 0 1-.661-.189v.632c0 .84 0 1.15-.636 1.15-.256 0-.882-.036-.882-.33v-6.6c0-.274.496-.293.792-.293.486 0 .607.249.643.943.149-.214.329-.404.533-.566a2.287 2.287 0 0 1 1.418-.45c1.186 0 1.697.882 1.697 2.032-.004 1.942-.99 3.671-2.904 3.671Zm-.661-2.244c0 .579.188.956.635.956.735 0 1.333-.901 1.333-2.125 0-.543-.147-.943-.607-.943-.809.004-1.361 1.118-1.361 2.112ZM171.29 39.532c0-1.446.497-2.862 2.639-2.862 1.546 0 2.208.745 2.208 1.942 0 1.407-.892 1.839-2.208 1.839a2.306 2.306 0 0 1-.68-.081 1.26 1.26 0 0 1-.377-.189c.099.505.431.93 1.489.93.432 0 .861-.068 1.271-.202.095-.039.194-.07.294-.093.211 0 .285.736.285.92a.317.317 0 0 1-.208.307c-.313.167-.984.33-1.923.33-2.413 0-2.79-1.61-2.79-2.84Zm1.546-.405c.26.117.542.176.827.173.617 0 .943-.275.943-.735 0-.46-.322-.643-.754-.643-.677-.007-.939.477-1.013 1.205h-.003ZM177.486 36.753c.533 0 .626.294.644 1.131.257-.58.755-1.223 1.767-1.223.413 0 .423.22.423.405 0 .754-.24.984-.598.984-.892 0-1.509 1.132-1.509 2.18v.943c0 .846 0 1.16-.635 1.16-.258 0-.882-.038-.882-.332v-4.954c0-.275.495-.294.79-.294ZM181.149 36.763v-.406c0-.332.221-.588.698-.828.16-.1.339-.164.526-.188.211 0 .294.213.294.754v.673h.856c.211 0 .441.036.441.33 0 .71-.13.903-.497.903h-.8v2.704c0 .342.174.47.441.47.202-.002.401-.04.589-.111a.611.611 0 0 1 .188-.046c.176 0 .189.654.189.92 0 .221-.404.442-1.32.442-1.197 0-1.591-.515-1.591-1.628v-2.756h-.306c-.358 0-.46-.066-.46-.332 0-.441.057-.901.498-.901h.254ZM187.064 37.977c-.837 0-1.058.102-1.058.377 0 .396.524.405 1.113.588.69.22 1.399.617 1.399 1.658 0 1.361-.93 1.774-2.374 1.774-1.058 0-1.563-.128-1.739-.313a.381.381 0 0 1-.101-.294c0-.202.047-.873.211-.873.028 0 .092.017.313.064a5.44 5.44 0 0 0 1.15.11c.377 0 .93-.065.93-.451 0-.387-.579-.487-1.205-.681-.662-.202-1.288-.432-1.288-1.573 0-1.252.754-1.697 2.31-1.697.827 0 1.636.12 1.636.46 0 .074-.026.975-.256.975-.038 0-.074-.019-.332-.064a6.761 6.761 0 0 0-.709-.06Z"></path>
    </g>
    <defs>
      <clipPath id="a">
        <path fill="#fff" d="M0 .002h190v46.717H0z"></path>
      </clipPath>
    </defs>
  </svg>